<svg width="2758" height="1701" viewBox="0 0 2758 1701" fill="none" xmlns="http://www.w3.org/2000/svg">
<rect width="2758" height="1701" fill="white"/>
<path d="M1120 525.5C1120 628.501 1036.5 712 933.5 712C830.499 712 747 628.501 747 525.5C747 422.499 830.499 339 933.5 339C1036.5 339 1120 422.499 1120 525.5ZM792.209 525.5C792.209 603.533 855.467 666.791 933.5 666.791C1011.53 666.791 1074.79 603.533 1074.79 525.5C1074.79 447.467 1011.53 384.209 933.5 384.209C855.467 384.209 792.209 447.467 792.209 525.5Z" fill="#D9D9D9"/>
<path d="M933.5 361.604C933.5 349.12 943.657 338.859 956.05 340.368C983.998 343.772 1010.92 353.475 1034.73 368.863C1064.89 388.356 1088.79 416.144 1103.54 448.889C1118.29 481.633 1123.28 517.94 1117.89 553.449C1112.51 588.957 1096.99 622.157 1073.2 649.058C1049.4 675.96 1018.35 695.419 983.765 705.099C949.18 714.778 912.535 714.266 878.234 703.623C843.933 692.981 813.434 672.661 790.402 645.104C772.221 623.352 759.302 597.82 752.509 570.496C749.497 558.381 758.441 547.046 770.832 545.521V545.521C783.222 543.996 794.328 552.89 797.807 564.879C803.235 583.583 812.496 601.044 825.09 616.112C842.539 636.988 865.645 652.382 891.631 660.445C917.617 668.508 945.379 668.896 971.58 661.563C997.782 654.23 1021.31 639.488 1039.33 619.107C1057.36 598.727 1069.12 573.575 1073.2 546.674C1077.27 519.773 1073.5 492.266 1062.32 467.46C1051.14 442.653 1033.04 421.601 1010.19 406.833C993.696 396.174 975.235 389.116 956.008 386.013C943.684 384.024 933.5 374.088 933.5 361.604V361.604Z" fill="#EFCF98"/>
<path d="M2011 525.5C2011 628.501 1927.5 712 1824.5 712C1721.5 712 1638 628.501 1638 525.5C1638 422.499 1721.5 339 1824.5 339C1927.5 339 2011 422.499 2011 525.5ZM1683.21 525.5C1683.21 603.533 1746.47 666.791 1824.5 666.791C1902.53 666.791 1965.79 603.533 1965.79 525.5C1965.79 447.467 1902.53 384.209 1824.5 384.209C1746.47 384.209 1683.21 447.467 1683.21 525.5Z" fill="#D9D9D9"/>
<path d="M1824.5 361.604C1824.5 349.12 1834.66 338.859 1847.05 340.368C1883.78 344.842 1918.54 360.174 1946.75 384.653C1980.67 414.096 2002.83 454.791 2009.15 499.262C2015.46 543.732 2005.52 588.99 1981.14 626.716C1956.77 664.443 1919.59 692.104 1876.45 704.617C1833.32 717.13 1787.11 713.654 1746.33 694.826C1705.55 675.999 1672.93 643.087 1654.47 602.137C1636.02 561.187 1632.96 514.952 1645.86 471.928C1656.59 436.157 1677.75 404.604 1706.39 381.168C1716.05 373.262 1730.12 376.496 1736.8 387.042V387.042C1743.48 397.589 1740.19 411.432 1730.85 419.707C1711.26 437.041 1696.76 459.581 1689.16 484.914C1679.39 517.509 1681.71 552.536 1695.69 583.56C1709.67 614.583 1734.38 639.517 1765.28 653.781C1796.17 668.044 1831.18 670.678 1863.86 661.198C1896.54 651.719 1924.7 630.762 1943.17 602.181C1961.64 573.599 1969.17 539.313 1964.39 505.622C1959.6 471.932 1942.81 441.101 1917.11 418.795C1897.14 401.46 1872.83 390.179 1847.01 386.013C1834.68 384.024 1824.5 374.088 1824.5 361.604V361.604Z" fill="#9FC2CB"/>
<path d="M1120 1175.5C1120 1278.5 1036.5 1362 933.5 1362C830.499 1362 747 1278.5 747 1175.5C747 1072.5 830.499 989 933.5 989C1036.5 989 1120 1072.5 1120 1175.5ZM792.209 1175.5C792.209 1253.53 855.467 1316.79 933.5 1316.79C1011.53 1316.79 1074.79 1253.53 1074.79 1175.5C1074.79 1097.47 1011.53 1034.21 933.5 1034.21C855.467 1034.21 792.209 1097.47 792.209 1175.5Z" fill="#D9D9D9"/>
<path d="M933.5 1011.6C933.5 999.12 943.657 988.859 956.05 990.368C987.413 994.188 1017.42 1005.93 1043.18 1024.66C1075.05 1047.83 1098.76 1080.51 1110.91 1118C1123.06 1155.49 1123.03 1195.86 1110.81 1233.33C1098.59 1270.8 1074.81 1303.43 1042.9 1326.54C1010.98 1349.66 972.561 1362.07 933.152 1362C893.744 1361.93 855.371 1349.37 823.541 1326.14C791.711 1302.9 768.058 1270.18 755.978 1232.67C746.218 1202.36 744.417 1170.18 750.568 1139.19C752.999 1126.95 765.916 1120.5 777.778 1124.39V1124.39C789.639 1128.28 795.903 1141.06 793.95 1153.39C790.495 1175.19 792.181 1197.6 799.011 1218.81C808.162 1247.23 826.081 1272.02 850.196 1289.62C874.31 1307.22 903.381 1316.74 933.237 1316.79C963.092 1316.85 992.198 1307.44 1016.38 1289.93C1040.56 1272.42 1058.57 1247.7 1067.83 1219.31C1077.08 1190.93 1077.11 1160.34 1067.91 1131.94C1058.7 1103.54 1040.74 1078.78 1016.59 1061.22C998.571 1048.12 977.798 1039.53 956.009 1036.01C943.684 1034.02 933.5 1024.09 933.5 1011.6V1011.6Z" fill="#94B48D"/>
<path d="M2011 1175.5C2011 1278.5 1927.5 1362 1824.5 1362C1721.5 1362 1638 1278.5 1638 1175.5C1638 1072.5 1721.5 989 1824.5 989C1927.5 989 2011 1072.5 2011 1175.5ZM1683.21 1175.5C1683.21 1253.53 1746.47 1316.79 1824.5 1316.79C1902.53 1316.79 1965.79 1253.53 1965.79 1175.5C1965.79 1097.47 1902.53 1034.21 1824.5 1034.21C1746.47 1034.21 1683.21 1097.47 1683.21 1175.5Z" fill="#D9D9D9"/>
<path d="M1824.5 1011.6C1824.5 999.12 1834.66 988.859 1847.05 990.368C1875.42 993.823 1902.72 1003.77 1926.78 1019.55C1957.17 1039.48 1981.07 1067.85 1995.55 1101.18C2010.03 1134.52 2014.46 1171.35 2008.29 1207.17C2002.12 1242.98 1985.62 1276.21 1960.82 1302.77C1936.02 1329.34 1904 1348.08 1868.69 1356.69C1833.39 1365.3 1796.34 1363.41 1762.09 1351.25C1727.84 1339.09 1697.9 1317.18 1675.93 1288.23C1658.53 1265.31 1646.74 1238.76 1641.35 1210.69C1638.99 1198.43 1648.54 1187.6 1660.99 1186.74V1186.74C1673.44 1185.88 1684.06 1195.36 1686.88 1207.52C1691.37 1226.8 1699.88 1245 1711.94 1260.91C1728.59 1282.84 1751.27 1299.43 1777.22 1308.65C1803.16 1317.86 1831.23 1319.29 1857.98 1312.77C1884.73 1306.24 1908.99 1292.05 1927.78 1271.92C1946.57 1251.8 1959.07 1226.62 1963.74 1199.49C1968.41 1172.36 1965.06 1144.45 1954.09 1119.2C1943.12 1093.95 1925.01 1072.45 1901.99 1057.35C1885.3 1046.4 1866.55 1039.17 1847.01 1036.01C1834.68 1034.02 1824.5 1024.09 1824.5 1011.6V1011.6Z" fill="#E19F9E"/>
<path d="M848.771 557L847.771 556L882.371 504H841.571V493.6H885.571V500.1L861.971 557H848.771ZM913.197 558.5C908.73 558.5 905.064 558 902.197 557C899.397 556 896.63 554.833 893.897 553.5L894.997 540.5H895.997L900.397 548.6C903.33 553.867 907.397 556.5 912.597 556.5C915.664 556.5 918.13 555.233 919.997 552.7C921.93 550.1 922.897 545.767 922.897 539.7C922.897 534.433 922.097 530.667 920.497 528.4C918.897 526.067 916.164 524.9 912.297 524.9H906.297V522.9H911.597C915.13 522.9 917.664 521.833 919.197 519.7C920.797 517.567 921.597 513.867 921.597 508.6C921.597 503.467 920.83 499.833 919.297 497.7C917.764 495.5 915.73 494.4 913.197 494.4C910.664 494.4 908.53 495.133 906.797 496.6C905.13 498.067 903.764 499.8 902.697 501.8L898.197 510.2L897.197 510.1L898.197 495.4C900.33 494.467 902.697 493.7 905.297 493.1C907.964 492.433 910.93 492.1 914.197 492.1C921.197 492.1 926.497 493.633 930.097 496.7C933.764 499.7 935.597 503.467 935.597 508C935.597 511.267 934.197 514.4 931.397 517.4C928.597 520.333 924.197 522.367 918.197 523.5C924.997 524.1 929.93 525.933 932.997 529C936.064 532.067 937.597 535.767 937.597 540.1C937.597 543.567 936.597 546.7 934.597 549.5C932.664 552.3 929.864 554.5 926.197 556.1C922.597 557.7 918.264 558.5 913.197 558.5ZM963.62 559.1L961.62 557.7L1006.72 491.6L1008.82 493L963.62 559.1ZM961.72 492.1C964.32 492.1 966.753 492.833 969.02 494.3C971.353 495.7 973.22 497.933 974.62 501C976.02 504 976.72 507.9 976.72 512.7C976.72 517.367 976.02 521.233 974.62 524.3C973.22 527.3 971.353 529.533 969.02 531C966.753 532.4 964.32 533.1 961.72 533.1C959.12 533.1 956.653 532.4 954.32 531C952.053 529.533 950.22 527.3 948.82 524.3C947.42 521.233 946.72 517.367 946.72 512.7C946.72 507.9 947.42 504 948.82 501C950.22 497.933 952.053 495.7 954.32 494.3C956.653 492.833 959.12 492.1 961.72 492.1ZM956.12 512.7C956.12 517.767 956.353 521.633 956.82 524.3C957.353 526.967 958.053 528.8 958.92 529.8C959.786 530.8 960.72 531.3 961.72 531.3C962.786 531.3 963.72 530.8 964.52 529.8C965.386 528.8 966.053 526.967 966.52 524.3C967.053 521.567 967.32 517.7 967.32 512.7C967.32 507.633 967.053 503.767 966.52 501.1C966.053 498.433 965.386 496.6 964.52 495.6C963.72 494.533 962.786 494 961.72 494C960.72 494 959.786 494.5 958.92 495.5C958.053 496.5 957.353 498.367 956.82 501.1C956.353 503.767 956.12 507.633 956.12 512.7ZM1007.42 516.9C1010.02 516.9 1012.45 517.633 1014.72 519.1C1017.05 520.5 1018.92 522.733 1020.32 525.8C1021.72 528.8 1022.42 532.7 1022.42 537.5C1022.42 542.167 1021.72 546.033 1020.32 549.1C1018.92 552.1 1017.05 554.333 1014.72 555.8C1012.45 557.2 1010.02 557.9 1007.42 557.9C1004.82 557.9 1002.35 557.2 1000.02 555.8C997.753 554.333 995.92 552.1 994.52 549.1C993.12 546.033 992.42 542.167 992.42 537.5C992.42 532.7 993.12 528.8 994.52 525.8C995.92 522.733 997.753 520.5 1000.02 519.1C1002.35 517.633 1004.82 516.9 1007.42 516.9ZM1001.82 537.5C1001.82 542.567 1002.05 546.433 1002.52 549.1C1003.05 551.767 1003.75 553.6 1004.62 554.6C1005.49 555.6 1006.42 556.1 1007.42 556.1C1008.49 556.1 1009.42 555.6 1010.22 554.6C1011.09 553.6 1011.75 551.767 1012.22 549.1C1012.75 546.367 1013.02 542.5 1013.02 537.5C1013.02 532.433 1012.75 528.567 1012.22 525.9C1011.75 523.233 1011.09 521.4 1010.22 520.4C1009.42 519.333 1008.49 518.8 1007.42 518.8C1006.42 518.8 1005.49 519.3 1004.62 520.3C1003.75 521.3 1003.05 523.167 1002.52 525.9C1002.05 528.567 1001.82 532.433 1001.82 537.5Z" fill="black"/>
<path d="M1786.85 518.9C1786.85 525.633 1785.29 531.767 1782.15 537.3C1779.02 542.767 1774.42 547.367 1768.35 551.1C1762.35 554.833 1754.99 557.467 1746.25 559L1745.85 557.2C1751.79 555.933 1756.55 554.1 1760.15 551.7C1763.75 549.3 1766.45 546.267 1768.25 542.6C1770.12 538.933 1771.32 534.533 1771.85 529.4C1770.45 530.333 1768.72 531.1 1766.65 531.7C1764.59 532.233 1762.25 532.5 1759.65 532.5C1755.92 532.5 1752.55 531.767 1749.55 530.3C1746.62 528.767 1744.29 526.567 1742.55 523.7C1740.82 520.833 1739.95 517.367 1739.95 513.3C1739.95 508.967 1741.02 505.233 1743.15 502.1C1745.29 498.9 1748.09 496.433 1751.55 494.7C1755.09 492.967 1758.95 492.1 1763.15 492.1C1770.75 492.1 1776.59 494.5 1780.65 499.3C1784.79 504.033 1786.85 510.567 1786.85 518.9ZM1754.05 512C1754.05 518.067 1754.89 522.467 1756.55 525.2C1758.22 527.867 1760.95 529.2 1764.75 529.2C1767.55 529.2 1769.99 528.6 1772.05 527.4C1772.19 525.933 1772.29 524.467 1772.35 523C1772.42 521.467 1772.45 519.867 1772.45 518.2C1772.45 512.067 1772.15 507.267 1771.55 503.8C1770.95 500.267 1769.99 497.767 1768.65 496.3C1767.32 494.833 1765.52 494.1 1763.25 494.1C1760.19 494.1 1757.89 495.5 1756.35 498.3C1754.82 501.1 1754.05 505.667 1754.05 512ZM1792.88 557V556L1796.78 554.8C1799.31 553.933 1800.58 552.233 1800.58 549.7V501.3L1792.48 502.4V501.1C1796.41 500.3 1800.18 499.167 1803.78 497.7C1807.44 496.233 1810.88 494.533 1814.08 492.6L1815.38 493.5L1814.98 507.8V549.7C1814.98 552.3 1816.24 553.967 1818.78 554.7L1822.88 556V557H1792.88ZM1847.64 559.1L1845.64 557.7L1890.74 491.6L1892.84 493L1847.64 559.1ZM1845.74 492.1C1848.34 492.1 1850.77 492.833 1853.04 494.3C1855.37 495.7 1857.24 497.933 1858.64 501C1860.04 504 1860.74 507.9 1860.74 512.7C1860.74 517.367 1860.04 521.233 1858.64 524.3C1857.24 527.3 1855.37 529.533 1853.04 531C1850.77 532.4 1848.34 533.1 1845.74 533.1C1843.14 533.1 1840.67 532.4 1838.34 531C1836.07 529.533 1834.24 527.3 1832.84 524.3C1831.44 521.233 1830.74 517.367 1830.74 512.7C1830.74 507.9 1831.44 504 1832.84 501C1834.24 497.933 1836.07 495.7 1838.34 494.3C1840.67 492.833 1843.14 492.1 1845.74 492.1ZM1840.14 512.7C1840.14 517.767 1840.37 521.633 1840.84 524.3C1841.37 526.967 1842.07 528.8 1842.94 529.8C1843.8 530.8 1844.74 531.3 1845.74 531.3C1846.8 531.3 1847.74 530.8 1848.54 529.8C1849.4 528.8 1850.07 526.967 1850.54 524.3C1851.07 521.567 1851.34 517.7 1851.34 512.7C1851.34 507.633 1851.07 503.767 1850.54 501.1C1850.07 498.433 1849.4 496.6 1848.54 495.6C1847.74 494.533 1846.8 494 1845.74 494C1844.74 494 1843.8 494.5 1842.94 495.5C1842.07 496.5 1841.37 498.367 1840.84 501.1C1840.37 503.767 1840.14 507.633 1840.14 512.7ZM1891.44 516.9C1894.04 516.9 1896.47 517.633 1898.74 519.1C1901.07 520.5 1902.94 522.733 1904.34 525.8C1905.74 528.8 1906.44 532.7 1906.44 537.5C1906.44 542.167 1905.74 546.033 1904.34 549.1C1902.94 552.1 1901.07 554.333 1898.74 555.8C1896.47 557.2 1894.04 557.9 1891.44 557.9C1888.84 557.9 1886.37 557.2 1884.04 555.8C1881.77 554.333 1879.94 552.1 1878.54 549.1C1877.14 546.033 1876.44 542.167 1876.44 537.5C1876.44 532.7 1877.14 528.8 1878.54 525.8C1879.94 522.733 1881.77 520.5 1884.04 519.1C1886.37 517.633 1888.84 516.9 1891.44 516.9ZM1885.84 537.5C1885.84 542.567 1886.07 546.433 1886.54 549.1C1887.07 551.767 1887.77 553.6 1888.64 554.6C1889.5 555.6 1890.44 556.1 1891.44 556.1C1892.5 556.1 1893.44 555.6 1894.24 554.6C1895.1 553.6 1895.77 551.767 1896.24 549.1C1896.77 546.367 1897.04 542.5 1897.04 537.5C1897.04 532.433 1896.77 528.567 1896.24 525.9C1895.77 523.233 1895.1 521.4 1894.24 520.4C1893.44 519.333 1892.5 518.8 1891.44 518.8C1890.44 518.8 1889.5 519.3 1888.64 520.3C1887.77 521.3 1887.07 523.167 1886.54 525.9C1886.07 528.567 1885.84 532.433 1885.84 537.5Z" fill="black"/>
<path d="M842.55 1193.1C842.55 1189.7 843.917 1186.7 846.65 1184.1C849.383 1181.5 852.75 1179.4 856.75 1177.8C848.283 1173.4 844.05 1167.4 844.05 1159.8C844.05 1156.13 844.983 1153 846.85 1150.4C848.717 1147.73 851.25 1145.7 854.45 1144.3C857.717 1142.83 861.35 1142.1 865.35 1142.1C869.417 1142.1 872.817 1142.77 875.55 1144.1C878.283 1145.37 880.317 1147.1 881.65 1149.3C883.05 1151.43 883.75 1153.8 883.75 1156.4C883.75 1158.4 883.217 1160.33 882.15 1162.2C881.083 1164.07 879.65 1165.77 877.85 1167.3C876.117 1168.83 874.217 1170.1 872.15 1171.1C877.15 1173.57 880.883 1176.37 883.35 1179.5C885.883 1182.57 887.15 1186.27 887.15 1190.6C887.15 1196 885.083 1200.33 880.95 1203.6C876.817 1206.87 871.283 1208.5 864.35 1208.5C857.283 1208.5 851.883 1207.13 848.15 1204.4C844.417 1201.6 842.55 1197.83 842.55 1193.1ZM855.75 1154.1C855.75 1156.1 856.117 1157.97 856.85 1159.7C857.583 1161.37 858.983 1163.07 861.05 1164.8C863.183 1166.47 866.25 1168.27 870.25 1170.2C872.25 1167.87 873.517 1165.63 874.05 1163.5C874.583 1161.37 874.85 1159.3 874.85 1157.3C874.85 1152.57 873.95 1149.2 872.15 1147.2C870.35 1145.13 867.983 1144.1 865.05 1144.1C862.45 1144.1 860.25 1145 858.45 1146.8C856.65 1148.53 855.75 1150.97 855.75 1154.1ZM853.05 1192.1C853.05 1196.37 854.117 1199.83 856.25 1202.5C858.383 1205.17 861.25 1206.5 864.85 1206.5C868.183 1206.5 870.717 1205.43 872.45 1203.3C874.183 1201.1 875.05 1198.27 875.05 1194.8C875.05 1192.67 874.583 1190.77 873.65 1189.1C872.717 1187.37 871.083 1185.7 868.75 1184.1C866.483 1182.5 863.317 1180.8 859.25 1179C858.917 1178.87 858.583 1178.7 858.25 1178.5C856.783 1179.9 855.683 1181.23 854.95 1182.5C854.217 1183.7 853.717 1185.07 853.45 1186.6C853.183 1188.07 853.05 1189.9 853.05 1192.1ZM915.045 1208.5C911.045 1208.5 907.279 1207.37 903.745 1205.1C900.279 1202.83 897.479 1199.27 895.345 1194.4C893.212 1189.53 892.145 1183.2 892.145 1175.4C892.145 1167.53 893.212 1161.17 895.345 1156.3C897.479 1151.37 900.279 1147.77 903.745 1145.5C907.279 1143.23 911.045 1142.1 915.045 1142.1C919.045 1142.1 922.779 1143.23 926.245 1145.5C929.779 1147.77 932.612 1151.37 934.745 1156.3C936.945 1161.17 938.045 1167.53 938.045 1175.4C938.045 1183.2 936.945 1189.53 934.745 1194.4C932.612 1199.27 929.779 1202.83 926.245 1205.1C922.779 1207.37 919.045 1208.5 915.045 1208.5ZM915.045 1206.5C916.712 1206.5 918.112 1206.07 919.245 1205.2C920.445 1204.33 921.412 1202.77 922.145 1200.5C922.879 1198.23 923.412 1195.1 923.745 1191.1C924.079 1187.03 924.245 1181.8 924.245 1175.4C924.245 1169 924.079 1163.77 923.745 1159.7C923.412 1155.57 922.879 1152.37 922.145 1150.1C921.412 1147.83 920.445 1146.27 919.245 1145.4C918.112 1144.53 916.712 1144.1 915.045 1144.1C913.379 1144.1 911.945 1144.53 910.745 1145.4C909.612 1146.27 908.679 1147.83 907.945 1150.1C907.212 1152.3 906.679 1155.47 906.345 1159.6C906.012 1163.67 905.845 1168.93 905.845 1175.4C905.845 1181.8 906.012 1187.03 906.345 1191.1C906.679 1195.17 907.212 1198.33 907.945 1200.6C908.679 1202.8 909.612 1204.33 910.745 1205.2C911.945 1206.07 913.379 1206.5 915.045 1206.5ZM962.741 1209.1L960.741 1207.7L1005.84 1141.6L1007.94 1143L962.741 1209.1ZM960.841 1142.1C963.441 1142.1 965.874 1142.83 968.141 1144.3C970.474 1145.7 972.341 1147.93 973.741 1151C975.141 1154 975.841 1157.9 975.841 1162.7C975.841 1167.37 975.141 1171.23 973.741 1174.3C972.341 1177.3 970.474 1179.53 968.141 1181C965.874 1182.4 963.441 1183.1 960.841 1183.1C958.241 1183.1 955.774 1182.4 953.441 1181C951.174 1179.53 949.341 1177.3 947.941 1174.3C946.541 1171.23 945.841 1167.37 945.841 1162.7C945.841 1157.9 946.541 1154 947.941 1151C949.341 1147.93 951.174 1145.7 953.441 1144.3C955.774 1142.83 958.241 1142.1 960.841 1142.1ZM955.241 1162.7C955.241 1167.77 955.474 1171.63 955.941 1174.3C956.474 1176.97 957.174 1178.8 958.041 1179.8C958.907 1180.8 959.841 1181.3 960.841 1181.3C961.907 1181.3 962.841 1180.8 963.641 1179.8C964.507 1178.8 965.174 1176.97 965.641 1174.3C966.174 1171.57 966.441 1167.7 966.441 1162.7C966.441 1157.63 966.174 1153.77 965.641 1151.1C965.174 1148.43 964.507 1146.6 963.641 1145.6C962.841 1144.53 961.907 1144 960.841 1144C959.841 1144 958.907 1144.5 958.041 1145.5C957.174 1146.5 956.474 1148.37 955.941 1151.1C955.474 1153.77 955.241 1157.63 955.241 1162.7ZM1006.54 1166.9C1009.14 1166.9 1011.57 1167.63 1013.84 1169.1C1016.17 1170.5 1018.04 1172.73 1019.44 1175.8C1020.84 1178.8 1021.54 1182.7 1021.54 1187.5C1021.54 1192.17 1020.84 1196.03 1019.44 1199.1C1018.04 1202.1 1016.17 1204.33 1013.84 1205.8C1011.57 1207.2 1009.14 1207.9 1006.54 1207.9C1003.94 1207.9 1001.47 1207.2 999.141 1205.8C996.874 1204.33 995.041 1202.1 993.641 1199.1C992.241 1196.03 991.541 1192.17 991.541 1187.5C991.541 1182.7 992.241 1178.8 993.641 1175.8C995.041 1172.73 996.874 1170.5 999.141 1169.1C1001.47 1167.63 1003.94 1166.9 1006.54 1166.9ZM1000.94 1187.5C1000.94 1192.57 1001.17 1196.43 1001.64 1199.1C1002.17 1201.77 1002.87 1203.6 1003.74 1204.6C1004.61 1205.6 1005.54 1206.1 1006.54 1206.1C1007.61 1206.1 1008.54 1205.6 1009.34 1204.6C1010.21 1203.6 1010.87 1201.77 1011.34 1199.1C1011.87 1196.37 1012.14 1192.5 1012.14 1187.5C1012.14 1182.43 1011.87 1178.57 1011.34 1175.9C1010.87 1173.23 1010.21 1171.4 1009.34 1170.4C1008.54 1169.33 1007.61 1168.8 1006.54 1168.8C1005.54 1168.8 1004.61 1169.3 1003.74 1170.3C1002.87 1171.3 1002.17 1173.17 1001.64 1175.9C1001.17 1178.57 1000.94 1182.43 1000.94 1187.5Z" fill="black"/>
<path d="M1739.48 1207L1738.48 1206L1773.08 1154H1732.28V1143.6H1776.28V1150.1L1752.68 1207H1739.48ZM1807.2 1207V1190.8H1780.9V1185.1L1810.2 1142.8H1820V1183.4H1829.5V1190.8H1820V1207H1807.2ZM1785.3 1183.4H1807.2V1151.9L1785.3 1183.4ZM1854.91 1209.1L1852.91 1207.7L1898.01 1141.6L1900.11 1143L1854.91 1209.1ZM1853.01 1142.1C1855.61 1142.1 1858.05 1142.83 1860.31 1144.3C1862.65 1145.7 1864.51 1147.93 1865.91 1151C1867.31 1154 1868.01 1157.9 1868.01 1162.7C1868.01 1167.37 1867.31 1171.23 1865.91 1174.3C1864.51 1177.3 1862.65 1179.53 1860.31 1181C1858.05 1182.4 1855.61 1183.1 1853.01 1183.1C1850.41 1183.1 1847.95 1182.4 1845.61 1181C1843.35 1179.53 1841.51 1177.3 1840.11 1174.3C1838.71 1171.23 1838.01 1167.37 1838.01 1162.7C1838.01 1157.9 1838.71 1154 1840.11 1151C1841.51 1147.93 1843.35 1145.7 1845.61 1144.3C1847.95 1142.83 1850.41 1142.1 1853.01 1142.1ZM1847.41 1162.7C1847.41 1167.77 1847.65 1171.63 1848.11 1174.3C1848.65 1176.97 1849.35 1178.8 1850.21 1179.8C1851.08 1180.8 1852.01 1181.3 1853.01 1181.3C1854.08 1181.3 1855.01 1180.8 1855.81 1179.8C1856.68 1178.8 1857.35 1176.97 1857.81 1174.3C1858.35 1171.57 1858.61 1167.7 1858.61 1162.7C1858.61 1157.63 1858.35 1153.77 1857.81 1151.1C1857.35 1148.43 1856.68 1146.6 1855.81 1145.6C1855.01 1144.53 1854.08 1144 1853.01 1144C1852.01 1144 1851.08 1144.5 1850.21 1145.5C1849.35 1146.5 1848.65 1148.37 1848.11 1151.1C1847.65 1153.77 1847.41 1157.63 1847.41 1162.7ZM1898.71 1166.9C1901.31 1166.9 1903.75 1167.63 1906.01 1169.1C1908.35 1170.5 1910.21 1172.73 1911.61 1175.8C1913.01 1178.8 1913.71 1182.7 1913.71 1187.5C1913.71 1192.17 1913.01 1196.03 1911.61 1199.1C1910.21 1202.1 1908.35 1204.33 1906.01 1205.8C1903.75 1207.2 1901.31 1207.9 1898.71 1207.9C1896.11 1207.9 1893.65 1207.2 1891.31 1205.8C1889.05 1204.33 1887.21 1202.1 1885.81 1199.1C1884.41 1196.03 1883.71 1192.17 1883.71 1187.5C1883.71 1182.7 1884.41 1178.8 1885.81 1175.8C1887.21 1172.73 1889.05 1170.5 1891.31 1169.1C1893.65 1167.63 1896.11 1166.9 1898.71 1166.9ZM1893.11 1187.5C1893.11 1192.57 1893.35 1196.43 1893.81 1199.1C1894.35 1201.77 1895.05 1203.6 1895.91 1204.6C1896.78 1205.6 1897.71 1206.1 1898.71 1206.1C1899.78 1206.1 1900.71 1205.6 1901.51 1204.6C1902.38 1203.6 1903.05 1201.77 1903.51 1199.1C1904.05 1196.37 1904.31 1192.5 1904.31 1187.5C1904.31 1182.43 1904.05 1178.57 1903.51 1175.9C1903.05 1173.23 1902.38 1171.4 1901.51 1170.4C1900.71 1169.33 1899.78 1168.8 1898.71 1168.8C1897.71 1168.8 1896.78 1169.3 1895.91 1170.3C1895.05 1171.3 1894.35 1173.17 1893.81 1175.9C1893.35 1178.57 1893.11 1182.43 1893.11 1187.5Z" fill="black"/>
</svg>
